<?xml version="1.0" encoding="utf-8"?>
<!-- Generator: Adobe Illustrator 26.5.0, SVG Export Plug-In . SVG Version: 6.00 Build 0)  -->
<svg version="1.1" id="Layer_1" xmlns="http://www.w3.org/2000/svg" xmlns:xlink="http://www.w3.org/1999/xlink" x="0px" y="0px"
	 viewBox="0 0 218.6 218.8" style="enable-background:new 0 0 218.6 218.8;" xml:space="preserve">
<style type="text/css">
	.st0{fill:#99BCAB;}
	.st1{fill:none;}
	.st2{display:none;}
	.st3{display:inline;fill:#5B5D5D;}
	.st4{font-family:'TrendSansOne';}
	.st5{font-size:25px;}
	.st6{font-size:16px;}
	.st7{letter-spacing:2;}
	.st8{fill:#5B5D5D;}
</style>
<path class="st0" d="M27.6,83.5c0.4,0.1,0.7,0.2,1.1,0.3l0.6,0.2l0.5,0.2c0.7,0.3,1.4,0.5,2.1,0.8c1.4,0.6,2.8,1.1,4.1,1.6
	c2.7,1,5.5,1.9,8.3,2.4c0.7,0.2,1.4,0.3,2.1,0.4c0.4,0.1,0.7,0.1,1.1,0.1l1.1,0.1c1.8,0.2,3.3,0.8,4.6,1.2c0.1,0,0.4,0.1,0.5,0.1
	l0.5,0.1c0.4,0.1,0.8,0.2,1.2,0.3c0.5,0.1,1,0.3,1.5,0.6c0.5,0.3,1,0.7,1.3,1.1c0.1,0.1,0.2,0.2,0.2,0.3c0.1,0.1,0.2,0.2,0.2,0.3
	c0.1,0.1,0.2,0.4,0.3,0.5c0.2,0.4,0.4,0.7,0.6,1.1c0.4,0.8,0.7,1.6,0.9,2.4l0.1,0.2l0,0.2l0.1,1l0,0.5l0,0.1l0,0.2l0,0.2l0,1.8
	l0,1.8l0,0.9l0,0.5l0,0.5l-0.1,3.7l0,1.8l0,0.9l0,0.4c0,0.1,0,0.2,0,0.4L61,114l-1.1,0.6c-1.4,0.8-2.9,1.7-4.4,2.5
	c-0.8,0.4-1.5,0.8-2.3,1.2l-0.3,0.1l-0.3,0.1c-0.2,0.1-0.4,0.1-0.6,0.2c-0.4,0.2-0.9,0.3-1.3,0.4c-1.7,0.5-3.4,0.8-5,1.2l-2.4,0.5
	l-2.4,0.5c-1.6,0.3-3.2,0.7-4.7,1.1c-1.5,0.4-3.1,0.9-4.5,1.4c-0.7,0.3-1.4,0.6-2,0.9c-0.6,0.3-1.2,0.7-1.7,1.2
	c-0.5,0.4-0.8,0.9-1,1.2c-0.1,0.4-0.2,0.8,0,1.2c0,0.1,0.1,0.2,0.1,0.4c0,0.1,0.1,0.3,0.2,0.4l0.1,0.2l0.1,0.1l0,0l0,0
	c0,0-0.1-0.2-0.1-0.1l0,0.1l0.4,0.5c0.1,0.1,0.1,0.1,0.2,0.2c0.1,0.1,0.2,0.1,0.3,0.2c0.2,0.1,0.4,0.2,0.7,0.3
	c0.9,0.3,2.2,0.1,3.1-0.6c0.5-0.3,0.9-0.7,1.1-1.2c0.3-0.4,0-0.1,0.4-0.5c0.1-0.1,0.3-0.3,0.3-0.3l0.2-0.2c0.3-0.2,0.6-0.3,0.8-0.4
	c0.5-0.2,0.9-0.4,1.4-0.5c1.7-0.5,3.4-0.8,5-1.2c1.7-0.3,3.3-0.6,4.9-0.8c1.6-0.3,3.1-0.6,4.7-1c3.1-0.8,6.2-1.9,9.3-3l12.9-4.6
	l-11.2,7.9c-0.8,0.6-1.7,1.2-2.5,1.7c-0.4,0.3-0.9,0.6-1.3,0.8c-0.2,0.1-0.4,0.3-0.8,0.4l-0.7,0.3c-1,0.4-2,0.8-2.9,1.2l-2.8,1.1
	l-11.2,4.1l-2.8,1l-1.4,0.5l-0.6,0.3c-0.1,0-0.2,0.1-0.3,0.1c-0.1,0-0.1,0.1-0.2,0.1c-1.5,0.9-3,2.1-4.1,3.4
	c-0.5,0.6-0.9,1.3-1.1,1.9c-0.1,0.6-0.1,0.9,0.2,1.4l0,0l0,0l0,0c0,0,0,0.1,0,0l0.1,0.2c0.1,0.1,0.2,0.2,0.2,0.3
	c0.1,0.1,0.2,0.3,0.4,0.4c0.3,0.3,0.6,0.5,0.9,0.7c0.6,0.4,1.3,0.7,1.7,0.7c0.1,0,0.1,0,0.2,0c0.1,0,0.1,0,0.2,0c0.1,0,0.1,0,0.1,0
	l0,0c0,0,0,0,0,0l0,0l0.2-0.1c0.3-0.1,0.7-0.3,1-0.5c0.7-0.4,1.4-1,1.8-1.5c0.1-0.1,0.2-0.3,0.3-0.4c0-0.1,0.1-0.1,0.1-0.2l0.2-0.3
	l0.1-0.1l0.1-0.2c0,0,0,0,0.1-0.1l0.1-0.2c0.1-0.1,0.2-0.2,0.3-0.3c0.1-0.1,0.2-0.2,0.3-0.3l0.2-0.1l0.4-0.3l0.4-0.2
	c1-0.6,2-0.9,3-1.3c2-0.7,3.9-1.3,5.9-1.8c1-0.3,2-0.5,3-0.7l0.7-0.2l0.4-0.1l0.1,0l0.2,0c0.2-0.1,0.5-0.1,0.7-0.2l0.6-0.2
	c1.8-0.6,3.6-1.3,5.5-2c1.8-0.7,3.7-1.5,5.5-2.3c3.7-1.6,7.3-3.2,11-4.8l0.4-0.2l0.5,0l1.3,0l0.7,0l0,0l0,0l0,0c0,0,0.1,0,0,0l0.1,0
	l0.2,0l0.4,0c0.8-0.1,1.7-0.2,2.7-0.3c1.9-0.3,3.7-0.6,5.6-0.9c3.7-0.6,7.5-1.3,11.2-2l5.6-1.1l5.6-1.1l2.8-0.6l1.4-0.3l1.4-0.3
	l5.5-1.4l1.3-0.3l0.7,1c0.5,0.7,0.9,1.6,1,2.5l0.1,0.3l-0.1,0.4c0,0.2-0.1,0.5-0.1,0.8c0,0.3,0,0.6,0,0.9c0,0.6,0,1.2,0.1,1.8
	c0.1,0.6,0.2,1.2,0.3,1.8c0.2,0.6,0.3,1.2,0.6,1.8c0.4,1.2,1,2.3,1.7,3.3l0.5,0.8c0.2,0.3,0.3,0.5,0.6,0.8l1.2,1.5l1.4,1.3l0.3,0.3
	l0.4,0.3l0.8,0.6c1,0.9,2.1,1.5,3.2,2.3c0.3,0.2,0.5,0.3,0.8,0.5l0.9,0.5l1.7,0.9l0.5,0.2c0.1,0.1,0.2,0.1,0.4,0.1
	c0.2,0.1,0.5,0.1,0.8,0.2c0.6,0.1,1.2,0.2,1.8,0.3c2.5,0.3,5.2,0.2,7.9,0c2.7-0.2,5.4-0.5,8-1c5.3-0.9,10.7-2.1,15.8-3.7l1.2-0.4
	l0.8,1l5.3,6.3l-0.1-0.1c1,1.1,2.1,2.1,3.1,3c0.3,0.2,0.5,0.4,0.8,0.6c0.1,0.1,0.2,0.1,0.3,0.2c0.1,0,0.1,0,0.3,0.1l0.5,0.2l0.4,0.1
	c0.3,0.1,0.6,0.1,0.9,0.2c1.2,0.2,2.4,0.1,3.2-0.4c0.8-0.5,1.4-1.3,1.7-2.5c0-0.1,0.1-0.3,0.1-0.4l0-0.1l0,0c0,0,0-0.1,0-0.1
	c0-0.2,0-0.5,0-0.7c-0.1-0.4-0.3-0.8-0.4-0.8c0,0,0,0,0,0c0,0,0,0,0,0l0,0c-0.1,0,0.1,0.1,0.1,0l0,0l-0.1,0l-0.1-0.1c-0.1,0,0,0,0,0
	c0,0,0,0,0,0l-0.1,0c-0.2,0-0.5,0-0.8,0c-0.4,0-0.8,0-1.3,0c-0.5,0-1.1-0.1-1.8-0.4c-0.2-0.1-0.3-0.2-0.5-0.3
	c-0.2-0.1-0.3-0.2-0.5-0.4l-0.2-0.2l-0.1-0.1l-0.2-0.2l-0.8-0.8l-1.6-1.6l-3.1-3.3l-3.1-3.3l-1.6-1.7c-0.5-0.6-1-1.1-1.6-1.7
	l-0.1-0.1l-0.1-0.1c0,0,0.2,0.2,0.1,0.1l0,0l0,0l-0.2-0.2c0,0,0,0,0,0c0,0-0.1,0-0.1-0.1c-0.2-0.1-0.4-0.2-0.7-0.3
	c-0.5-0.2-1.1-0.3-1.6-0.3c-0.2,0-0.5,0-0.5,0.1c0,0,0,0,0.1,0c0.1-0.1,0,0-0.1,0.1l-0.5,0.3c-0.1,0.1-0.3,0.2-0.5,0.4
	c-0.2,0.1-0.4,0.3-0.6,0.4c-0.4,0.2-0.8,0.4-1.2,0.6c-1.6,0.8-3.5,1.2-5.3,1c-1.9-0.1-3.6-0.7-5.2-1.7c-0.8-0.5-1.5-1.1-2.1-1.8
	c-0.3-0.4-0.6-0.8-0.9-1.3c-0.1-0.3-0.3-0.6-0.4-1c0-0.2-0.1-0.4-0.1-0.7c0-0.2,0-0.3,0-0.5c0-0.2,0.1-0.4,0.2-0.5
	c0.1-0.2,0.2-0.4,0.3-0.5l0.1-0.2l0-0.1c0.1-0.1,0.1-0.1,0.1-0.1c0.1-0.1,0.2-0.2,0.3-0.4c0.2-0.3,0.4-0.6,0.6-0.9
	c0.4-0.6,0.7-1.2,1.1-1.9l0.5-0.9l1-0.1c3.2-0.3,6.4-0.9,9.3-1.9l1.2-0.4l0.8,1l5,6c0.3,0.3,0.2,0.3,0.5,0.6l0.6,0.7
	c0.4,0.4,0.9,0.9,1.3,1.3c0.4,0.4,0.9,0.8,1.3,1.1c0.2,0.2,0.4,0.3,0.6,0.4c0,0,0.1,0,0.1,0l0,0l0,0c0,0,0.1,0-0.1,0l0,0l0.1,0
	l0.5,0.2c1,0.3,2,0.5,3,0.4c1-0.1,1.9-0.4,2.5-0.9c0.6-0.5,0.9-1.2,1-2.2c0.1-0.2,0-0.5,0-0.7l0-0.2l0-0.1l0,0c0-0.1,0,0.2,0,0.1
	l0,0l0,0l-0.1-0.5l0-0.1c0,0,0,0,0,0c0,0,0,0,0,0c0,0,0,0,0,0c0,0,0,0,0,0c0,0,0,0,0,0c0,0,0,0,0,0c0,0-0.5-0.2-1.1-0.2
	c-0.6,0-1.3,0-2.3-0.3c-0.2,0-0.5-0.2-0.7-0.2c-0.2-0.1-0.5-0.3-0.7-0.4c-0.2-0.2-0.5-0.4-0.7-0.6l-0.1-0.1l-0.1-0.1l-0.2-0.2
	l-1.3-1.4l-5.3-5.6l-2.7-2.8l-1.3-1.4l-0.7-0.7l-0.6-0.7l-0.2-0.2c0,0,0,0,0,0l0,0l-0.1,0l-0.1-0.1c-0.2-0.1-0.4-0.2-0.6-0.2
	c-0.4-0.1-0.9-0.2-1.4-0.3c-0.2,0-0.5,0-0.6,0c-0.1,0-0.1,0-0.2,0c0,0,0,0,0,0c0.1,0,0.1,0,0.1-0.1c-0.6,0.5-1.2,0.9-1.8,1.3l-3.4,2
	l0.6-3.9c0.3-1.9,0.4-3.8,0.3-5.7c-0.1-0.9-0.2-1.8-0.4-2.7c-0.1-0.4-0.2-0.9-0.4-1.3c-0.1-0.4-0.3-0.8-0.5-1.2l-0.1-0.2l0-0.1
	c-0.4-1.3-0.8-2.5-1.3-3.7l-0.9-2.2l2.4-0.4c0.6-0.1,1.1-0.3,1.5-0.7c0.2-0.2,0.4-0.4,0.6-0.6c0.1-0.1,0.2-0.2,0.2-0.4l0,0l0,0l0,0
	l0,0l0,0c0,0-0.1,0.1,0,0.1l0,0l0.1-0.2c0-0.1,0.1-0.2,0.1-0.3c0-0.1,0.1-0.2,0.1-0.4c0-0.1,0-0.3,0-0.4c0-0.3,0-0.6-0.1-0.8
	c-0.1-0.6-0.4-1.1-0.8-1.5l-0.4-0.4l-0.1-0.6c-0.1-0.8-0.4-1.5-0.8-2.2l-0.3-0.5l0-0.6c0-0.2,0-0.3,0-0.5c0-0.2,0-0.3-0.1-0.5
	c-0.1-0.3-0.2-0.6-0.4-0.9c-0.2-0.3-0.4-0.5-0.6-0.7c-0.1-0.1-0.2-0.2-0.4-0.3l-0.2-0.1l-0.1-0.1l-0.1,0l0,0l0,0l0,0l0,0l0,0
	c0,0-0.1,0,0.1,0l-0.3-0.1c-0.1,0-0.1,0-0.2,0c-0.1,0-0.3-0.1-0.4-0.1c-0.3,0-0.6,0-0.9,0c-0.3,0.1-0.6,0.2-0.9,0.3
	c-0.1,0.1-0.3,0.2-0.4,0.2c-0.1,0.1-0.2,0.2-0.4,0.3l-0.4,0.4l-0.5,0.1c-0.8,0.2-1.7,0.5-2.4,1c-0.7,0.5-1.3,1.1-1.8,1.8l-0.7,1.1
	l-1.4-0.4c-0.5-0.1-1.1-0.3-1.6-0.4c-0.5-0.1-1.1-0.2-1.7-0.3c-0.6-0.1-1.1-0.2-1.7-0.2c-0.6-0.1-1.1-0.1-1.7-0.1
	c-1.2-0.1-2.3-0.1-3.5-0.1c-1.2,0-2.4,0.1-3.5,0.2c-1.2,0.1-2.4,0.2-3.6,0.3l-3.6,0.4c-2.4,0.3-4.7,0.6-7.1,1c0,0,0,0-0.1,0
	l-0.9-0.1l0,0c-1.6-0.8-3.1-1.8-4.5-2.8c-1.4-1.1-2.8-2.2-3.8-3.7c0,0,0,0,0,0l0,0l0,0c1.8,0.8,3.7,1.4,5.6,1.9
	c1.9,0.5,3.8,0.8,5.8,0.9c0.5,0,1,0,1.4,0c0.5,0,0.9,0,1.4-0.1c0.5,0,0.9-0.1,1.4-0.2l0.7-0.1l0.7-0.2c0.2-0.1,0.4-0.1,0.6-0.2
	c0.2-0.1,0.4-0.1,0.6-0.2c0.4-0.2,0.8-0.4,1.2-0.6c0.4-0.2,0.7-0.4,1-0.7c0.3-0.2,0.6-0.6,0.9-0.8c0,0,0,0,0,0l0.7,3.2
	c-1.1-0.5-2.3-1-3.4-1.6c-1.1-0.5-2.2-1.1-3.3-1.6c-1.1-0.6-2.2-1.1-3.3-1.7c-0.5-0.3-1.1-0.6-1.6-0.9c-0.3-0.2-0.5-0.3-0.8-0.5
	c-0.3-0.2-0.5-0.4-0.7-0.5c0,0,0,0-0.1,0l0,0l0,0c2.3,0.4,4.6,0.8,6.9,1.2l1.7,0.3c0.6,0.1,1.2,0.2,1.7,0.3c0.3,0,0.6,0.1,0.9,0.1
	l0.8,0c0.3,0,0.6,0,0.8,0c0.3,0,0.6,0,0.8,0c0.6,0,1.1-0.1,1.6-0.2c0.5-0.1,1.1-0.2,1.6-0.4c0.5-0.1,1-0.4,1.5-0.6l0.7-0.3
	c0.2-0.1,0.5-0.3,0.7-0.4c0.2-0.1,0.5-0.3,0.7-0.4c0.2-0.1,0.5-0.3,0.7-0.4c0.4-0.3,0.9-0.6,1.3-1c0.4-0.4,0.8-0.7,1.2-1.1
	c0.4-0.4,0.7-0.8,1.1-1.2c0,0,0,0,0,0l1.2,3.1c-1.8-0.3-3.6-0.6-5.4-0.9c-1.8-0.3-3.6-0.7-5.4-1c-1.8-0.4-3.6-0.7-5.4-1.2
	c-0.9-0.2-1.8-0.4-2.7-0.7c-0.9-0.2-1.8-0.5-2.6-0.8c0,0,0,0-0.1,0l0,0l8.8-0.1l4.4,0c0.7,0,1.5,0,2.2-0.1c0.7-0.1,1.4-0.1,2.1-0.2
	c0.7-0.1,1.4-0.2,2.1-0.3c0.7-0.1,1.4-0.3,2-0.5l0.5-0.1l0.5-0.2c0.3-0.1,0.6-0.2,0.9-0.4c0.6-0.3,1.2-0.6,1.7-1
	c0.5-0.4,1-0.8,1.5-1.3l0.7-0.7l0.6-0.8c0.4-0.6,0.8-1.1,1.1-1.7c0.4-0.6,0.7-1.2,1-1.8c0,0,0,0,0-0.1l1.8,2.8
	c-4.8,0.2-9.7,0.3-14.5,0.3c-2.4,0-4.8,0-7.2,0c-1.2,0-2.4,0-3.6-0.1c-0.6,0-1.2-0.1-1.8-0.1c-0.6,0-1.2-0.1-1.8-0.2c0,0,0,0-0.1,0
	l0,0c6.8-1.2,13.6-2.4,20.3-3.8l0.3-0.1l0.3-0.1l0.6-0.2c0.4-0.1,0.8-0.2,1.2-0.3c0.4-0.1,0.8-0.2,1.1-0.4l1.1-0.5
	c0.7-0.3,1.5-0.7,2.1-1.1c0.7-0.4,1.3-0.9,1.9-1.4c0.6-0.5,1.1-1.1,1.6-1.7c0.2-0.3,0.4-0.6,0.6-0.9c0.2-0.3,0.4-0.7,0.5-1
	c0.3-0.7,0.6-1.4,0.8-2.1c0.2-0.7,0.3-1.5,0.4-2.2c0,0,0,0,0-0.1l2.4,2.1c-6.7,1.7-13.3,3.3-20,4.9c-3.3,0.8-6.7,1.6-10,2.3
	c-1.7,0.4-3.4,0.7-5,1.1c-0.8,0.2-1.7,0.3-2.5,0.5l-1.3,0.2c-0.4,0.1-0.9,0.1-1.3,0.2c0,0,0,0-0.1,0l0,0c1-0.4,2-0.9,3-1.3l3-1.3
	c2-0.9,4-1.7,6-2.5c2-0.8,4-1.7,6-2.4c2-0.8,4-1.6,6.1-2.4l3-1.1l1.5-0.6l0.8-0.3c0.2-0.1,0.5-0.2,0.7-0.3c0.4-0.2,0.9-0.4,1.3-0.6
	l1.3-0.7l1.3-0.8l1.2-0.9l1.1-0.9c0.3-0.3,0.7-0.7,0.9-1c0.3-0.4,0.6-0.7,0.8-1.1c0.3-0.4,0.5-0.8,0.7-1.2c0.4-0.8,0.7-1.6,0.8-2.5
	c0.1-0.9,0.2-1.8,0.1-2.7l0-0.1l2.6,1.4L128.5,48l-0.1,0l-0.1,0c-2.8,0.7-5.7,1.3-8.5,1.9c-2.9,0.6-5.7,1.1-8.6,1.4l-0.1,0l-4.8,0.6
	l4.6-1.6l8.3-3l4.1-1.5c0.7-0.2,1.4-0.5,2-0.8c0.7-0.3,1.3-0.5,1.9-0.9c0.6-0.3,1.3-0.6,1.9-1c0.6-0.4,1.2-0.7,1.7-1.1l0.4-0.3
	l0.4-0.3c0.3-0.2,0.5-0.4,0.7-0.7c0.5-0.5,0.9-1,1.2-1.5c0.4-0.5,0.7-1.1,1-1.7l0.4-0.9l0.3-0.9c0.2-0.6,0.4-1.3,0.5-2
	c0.2-0.7,0.2-1.4,0.4-2c0,0,0,0,0-0.1l2.6,2c-4.5,1.8-9,3.5-13.5,5.2c-2.3,0.8-4.5,1.7-6.8,2.5c-1.1,0.4-2.3,0.8-3.4,1.1
	c-0.6,0.2-1.2,0.4-1.7,0.5c-0.6,0.2-1.2,0.3-1.7,0.5c0,0,0,0-0.1,0l0,0c1.4-1,2.8-2,4.3-3l2.2-1.4c0.7-0.5,1.5-0.9,2.2-1.4
	c2.9-1.9,5.8-3.7,8.7-5.5l0.3-0.2l0,0c-0.1,0.1,0,0,0,0l0,0l0,0l0.1,0l0.1-0.1l0.5-0.4c0.4-0.2,0.7-0.5,1-0.7
	c0.3-0.2,0.6-0.4,0.9-0.7l0.9-0.8c0.6-0.5,1.1-1.1,1.6-1.7c0.5-0.6,0.9-1.2,1.3-1.8c0.4-0.6,0.7-1.3,0.9-2c0.1-0.3,0.2-0.7,0.3-1
	c0.1-0.4,0.2-0.7,0.2-1.1c0.1-0.7,0.2-1.5,0.2-2.2c0-0.7,0-1.5-0.1-2.3l0,0l2.9,1.1c-5.7,3.9-11.4,7.7-17.1,11.5
	c-2.9,1.9-5.7,3.8-8.6,5.6c-1.4,0.9-2.9,1.8-4.4,2.8c-0.7,0.4-1.5,0.9-2.2,1.3l-1.1,0.6c-0.4,0.2-0.8,0.4-1.1,0.6l0,0l0,0
	c1.5-1.6,3-3.1,4.6-4.7c1.6-1.5,3.1-3,4.7-4.5c1.6-1.5,3.2-2.9,4.9-4.3c1.6-1.4,3.3-2.8,5-4.2l2.5-2.1l1.2-1l0.6-0.5l0.5-0.5
	c0.7-0.7,1.4-1.4,2.1-2.2l0.9-1.2l0.8-1.2c0.2-0.4,0.5-0.8,0.7-1.3c0.2-0.4,0.4-0.9,0.5-1.3c0.1-0.4,0.3-0.9,0.4-1.3
	c0.1-0.4,0.2-0.9,0.2-1.3c0-0.9,0-1.8-0.2-2.6c-0.2-0.9-0.5-1.7-1-2.5l3.1,0.4l-35,35L97.8,44l-0.5,0.5l-0.5,0.5l-1.1,1.1l-0.5,0.6
	c-0.2,0.2-0.3,0.4-0.5,0.6l-0.9,1.1c-1.2,1.5-2.3,3.1-3.3,4.8c-0.5,0.8-0.9,1.7-1.4,2.6c-0.4,0.9-0.8,1.8-1.1,2.7l-0.5,1.4l-0.2,0.7
	L87,61.2l-0.4,1.4c-0.1,0.5-0.2,0.9-0.3,1.4c-0.4,1.9-0.5,3.8-0.5,5.8c0.1,1.9,0.2,3.9,0.6,5.8c0.3,1.9,0.9,3.8,1.6,5.6l1.4,4
	l-4-1.2c-1.9-0.6-3.8-1.3-5.5-2.1C78.1,81,76.4,80,74.8,79l-0.7-0.4l-0.2-0.7c-0.1-0.5-0.3-0.9-0.5-1.4c-0.2-0.4-0.3-0.8-0.6-1.3
	c-0.1-0.3-0.3-0.6-0.4-0.9l-0.2-0.4l-0.1-0.3c-0.2-0.4-0.4-0.8-0.6-1.2l0-0.1l0-0.1c-0.3-0.7-0.9-1.4-1.5-2.1
	c-0.6-0.7-1.3-1.3-2.1-2l-2.4-1.9l2.6-1.5l3.4-2l1.7-1l0.2-0.1l0.1-0.1c0,0-0.2,0.1-0.1,0.1l0,0l0,0l0.1,0l0.4-0.3
	c0.3-0.2,0.4-0.3,0.6-0.4c0.2-0.1,0.4-0.3,0.5-0.5c0.2-0.2,0.4-0.4,0.6-0.6c0.2-0.2,0.4-0.4,0.5-0.6c0.2-0.2,0.4-0.4,0.5-0.7
	c0.7-0.9,1.3-2,1.9-3.1c0.6-1.1,1.2-2.2,1.8-3.4c0.1-0.3,0.3-0.6,0.5-0.9c0.2-0.3,0.4-0.7,0.6-0.9l1-1.6c1.4-2.2,2.7-4.3,4-6.5
	c0.6-1.1,1.3-2.2,1.9-3.3c0.6-1.1,1.2-2.2,1.7-3.3c0.3-0.5,0.5-1.1,0.7-1.6c0.1-0.3,0.2-0.5,0.3-0.8l0.1-0.4c0-0.1,0-0.2,0.1-0.3
	l0-0.1l0-0.1c0,0,0,0.4,0,0.2l0,0l0,0l0-0.1l0-0.1c0,0,0,0.1,0,0.1c0,0.1,0,0.2,0,0.2c0,0.1,0,0.1,0.1,0.2c0.1,0.2,0.1,0.1,0,0.1
	c-0.2-0.1-0.6-0.3-1-0.4c-0.9-0.2-1.9-0.2-2.9,0c-1,0.2-1.9,0.6-2.8,1.2c-0.9,0.6-1.9,1.4-2.8,2.3c-0.9,0.8-1.8,1.7-2.7,2.6
	l-5.8,5.8l2.5-7.8c0.3-0.8,0.5-1.7,0.6-2.4c0-0.2,0.1-0.4,0.1-0.5c0-0.1,0-0.1,0-0.2l0,0l0,0l0,0c0-0.2,0,0.2,0,0.2l0-0.1
	c0,0,0-0.1,0,0c0,0.1,0,0.1,0,0.2c0,0.1,0.1,0.1,0.1,0.2c0,0,0,0,0,0.1c0,0.1,0,0.1,0.1,0.1c0,0,0,0,0,0.1c0,0,0,0,0,0
	c0,0,0,0-0.1-0.1c-0.3-0.2-1.1-0.3-1.7-0.2c-0.7,0-1.4,0.2-2,0.5c-0.6,0.3-1.2,0.6-1.8,1.1L71,35.3c0,0-0.1,0.1-0.1,0.1l-0.1,0.1
	L70.3,36c-0.3,0.3-0.6,0.6-0.8,0.9c-1.1,1.3-2.2,2.7-3.3,4.1c-1,1.4-2,2.9-3,4.4l-0.7,1.1l-0.3,0.6l-0.3,0.5c-0.3,0.7-0.7,1.5-1,2.3
	c-1.3,3.3-2.6,6.8-3.9,10.2l-0.6,1.6l-1.7-0.4c-1.3-0.3-2.7-0.6-3.9-0.7l-0.2,0l-0.2,0c-0.3-0.1-0.8-0.2-1.3-0.2
	c-0.5-0.1-0.9-0.1-1.4-0.2c-0.9-0.1-1.8-0.1-2.8-0.1c-0.9,0-1.8,0.2-2.7,0.3c-0.9,0.2-1.7,0.4-2.5,0.8c-0.2,0.1-0.4,0.2-0.6,0.3
	l-0.6,0.3c-0.4,0.2-0.8,0.5-1.2,0.7c-0.8,0.5-1.6,1-2.4,1.6c-0.8,0.5-1.6,1.1-2.4,1.7c-0.8,0.6-1.6,1.2-2.5,1.8
	c-0.9,0.6-1.8,1.2-2.7,1.7L27,69.5l-0.1,0l0,0c0.2-0.1,0,0,0.1,0l0,0l0,0l-0.2,0.1l-0.3,0.2c0,0-0.1,0.1-0.1,0.1
	c-0.1,0.1-0.2,0.2-0.3,0.3c-0.1,0.1-0.2,0.3-0.3,0.4c-0.9,1.2-1.3,2.9-1.4,4.6c-0.1,1.7,0.2,3.5,0.8,5.1c0.3,0.8,0.7,1.5,1.2,2.1
	C26.6,83,27.1,83.3,27.6,83.5L27.6,83.5z M26.7,87.1c-1.4-0.4-2.6-1.3-3.4-2.2c-0.8-1-1.4-2.1-1.8-3.1c-0.8-2.2-1.1-4.4-1-6.7
	c0.1-1.1,0.2-2.3,0.6-3.4c0.3-1.1,0.8-2.2,1.6-3.3c0.4-0.5,0.8-1,1.4-1.4l0.4-0.3l0.3-0.2l0.2-0.1l0.2-0.1l0.3-0.2
	c0.8-0.5,1.6-1,2.4-1.5c0.8-0.5,1.6-1.1,2.4-1.7c0.8-0.6,1.7-1.2,2.5-1.8c0.9-0.6,1.7-1.1,2.6-1.7c0.4-0.3,0.8-0.5,1.4-0.8l0.8-0.4
	c0.3-0.1,0.5-0.2,0.8-0.3c1-0.5,2.1-0.7,3.2-1c1.1-0.2,2.2-0.3,3.3-0.4c1.1,0,2.2,0,3.2,0.1c0.5,0,1.1,0.1,1.6,0.2
	c0.6,0.1,1,0.2,1.7,0.3l-0.4-0.1c1.7,0.1,3.2,0.4,4.7,0.8l-2.3,1.2c1.3-3.4,2.5-6.8,3.9-10.3c0.4-0.9,0.7-1.7,1.2-2.7l0.4-0.7
	l0.4-0.6l0.7-1.2c1-1.6,2-3.1,3.1-4.6c1.1-1.5,2.2-3,3.5-4.4c0.3-0.4,0.7-0.7,1-1.1l0.5-0.5l0.1-0.1l0.2-0.2l0.3-0.3
	c0.8-0.7,1.8-1.3,2.8-1.8c1-0.4,2.1-0.7,3.3-0.8c0.6,0,1.2,0,1.8,0.1c0.6,0.1,1.2,0.2,1.9,0.5c0.3,0.2,0.7,0.3,1,0.7
	c0.1,0.1,0.2,0.2,0.3,0.3c0.1,0.1,0.2,0.2,0.3,0.3c0.1,0.1,0.2,0.2,0.2,0.4l0.1,0.2c0,0.1,0.1,0.2,0.1,0.3c0,0.1,0.1,0.2,0.1,0.4
	l0,0.1l0,0.1l0,0.2l0,0l0,0l0,0.1c0,0.2,0,0.3,0,0.5c0,0.3-0.1,0.6-0.1,0.9c-0.2,1.1-0.5,2-0.8,2.9l-3.3-2c0.9-0.9,1.9-1.8,2.9-2.7
	c1-0.9,2-1.7,3.2-2.6c1.3-0.9,2.7-1.5,4.3-1.8c1.5-0.3,3.1-0.3,4.7,0.1c0.8,0.2,1.6,0.5,2.5,1.1c0.4,0.3,0.9,0.7,1.2,1.5
	c0.1,0.2,0.2,0.4,0.2,0.6c0,0.2,0.1,0.3,0.1,0.5l0,0.2l0,0.1l0,0.1l0,0l0,0.2l0,0.2l-0.1,0.3c0,0.2-0.1,0.5-0.2,0.6l-0.2,0.5
	c-0.1,0.4-0.3,0.7-0.4,1c-0.3,0.7-0.6,1.3-0.8,1.9c-0.6,1.2-1.2,2.4-1.8,3.5c-0.6,1.1-1.3,2.3-1.9,3.4c-1.3,2.2-2.7,4.4-4,6.6
	l-1,1.6c-0.2,0.3-0.3,0.4-0.4,0.7c-0.1,0.3-0.3,0.5-0.4,0.8c-0.6,1.1-1.1,2.3-1.8,3.5c-0.6,1.2-1.3,2.3-2.1,3.5
	c-0.2,0.3-0.4,0.6-0.6,0.8c-0.2,0.3-0.4,0.6-0.7,0.8c-0.2,0.3-0.5,0.5-0.8,0.8c-0.3,0.3-0.5,0.5-0.9,0.8c-0.3,0.3-0.7,0.6-1,0.7
	l-0.4,0.3l-0.3,0.2l-0.2,0.1l-1.6,1l-3.3,1.9l0.2-3.5c0.9,0.7,1.7,1.5,2.5,2.4c0.8,0.9,1.6,1.8,2.2,3l-0.1-0.1
	c0.3,0.5,0.6,1.1,0.9,1.7l0.2,0.4l0.1,0.4c0.1,0.2,0.2,0.4,0.3,0.6c0.2,0.4,0.5,1,0.8,1.6c0.2,0.6,0.4,1.2,0.6,1.7l-0.9-1.2
	c1.5,1,3,1.9,4.6,2.6c1.6,0.8,3.2,1.4,4.9,1.9l-2.6,2.8c-0.7-2.1-1.4-4.1-1.8-6.3c-0.5-2.1-0.6-4.3-0.7-6.5c0-2.2,0.1-4.4,0.6-6.6
	c0.1-0.5,0.2-1.1,0.3-1.6l0.4-1.6l0.2-0.8l0.3-0.8l0.5-1.6c0.4-1,0.9-2,1.3-3c0.5-1,1-1.9,1.6-2.9c1.1-1.9,2.3-3.6,3.7-5.3l1.1-1.3
	c0.2-0.2,0.4-0.4,0.5-0.6l0.5-0.6l1.1-1.1l0.6-0.6l0.5-0.5l4.4-4.4l35.2-34.8l1.8-1.8l1.3,2.2c0.6,1.1,1.1,2.3,1.4,3.6
	c0.3,1.3,0.3,2.6,0.3,3.8c-0.1,0.6-0.1,1.3-0.3,1.9c-0.1,0.6-0.3,1.2-0.5,1.8c-0.2,0.6-0.5,1.1-0.7,1.7c-0.3,0.5-0.6,1.1-0.9,1.6
	l-1,1.5l-1.1,1.4c-0.8,0.9-1.6,1.7-2.5,2.5l-0.6,0.6l-0.6,0.5l-0.6,0.5l-0.3,0.3l-0.4,0.3l-2.6,2c-1.7,1.3-3.5,2.6-5.2,3.9
	c-1.7,1.3-3.5,2.6-5.3,3.8c-1.8,1.3-3.6,2.5-5.4,3.7c-0.9,0.6-1.8,1.2-2.8,1.8c-0.9,0.6-1.9,1.2-2.8,1.7l0,0l0,0
	c0.4-0.2,0.7-0.4,1.1-0.7l1.1-0.7c0.7-0.5,1.4-1,2.1-1.5c1.4-1,2.7-2.1,4.1-3.1c2.7-2.1,5.4-4.2,8.1-6.4c5.3-4.3,10.7-8.6,16-12.9
	l2.2-1.8l0.7,3l0,0.1c0.2,0.9,0.4,1.9,0.5,2.9c0.1,1,0,2-0.1,3c-0.1,0.5-0.2,1-0.3,1.5c-0.1,0.5-0.3,1-0.4,1.4
	c-0.3,0.9-0.8,1.8-1.3,2.7c-0.5,0.9-1.1,1.6-1.7,2.4c-0.6,0.7-1.3,1.4-2.1,2l-1.1,0.9c-0.4,0.3-0.8,0.5-1.2,0.8
	c-0.4,0.3-0.8,0.5-1.2,0.7l-0.6,0.3l-0.3,0.2l-0.3,0.1c-1.6,0.8-3.1,1.5-4.7,2.3c-1.6,0.7-3.2,1.4-4.8,2.1c-0.8,0.3-1.6,0.7-2.4,1
	l-2.4,1c-1.6,0.6-3.2,1.2-4.9,1.8l0,0c0,0,0,0,0.1,0c0.6-0.2,1.1-0.4,1.7-0.7c0.5-0.2,1.1-0.5,1.6-0.7c1.1-0.5,2.2-1,3.2-1.6
	c2.1-1.1,4.3-2.2,6.4-3.3c4.2-2.3,8.5-4.6,12.7-6.9l3.2-1.8l-0.6,3.8c0,0,0,0,0,0.1c-0.2,0.8-0.3,1.5-0.6,2.3
	c-0.2,0.8-0.5,1.5-0.8,2.2l-0.5,1.1l-0.6,1.1c-0.4,0.7-0.9,1.4-1.4,2c-0.5,0.6-1.1,1.2-1.7,1.8c-0.3,0.3-0.6,0.5-1,0.8l-0.5,0.4
	l-0.5,0.3c-0.7,0.4-1.4,0.8-2.1,1.1c-0.7,0.3-1.4,0.6-2.1,0.9c-0.7,0.3-1.4,0.5-2.2,0.8c-0.7,0.2-1.4,0.4-2.1,0.6l-4.3,1.2l-8.5,2.3
	l-0.2-1.1l0.1,0c2.8-0.4,5.6-1.1,8.4-1.8c2.8-0.7,5.6-1.5,8.4-2.3l-0.2,0.1l34.6-17l2.2-1.1l0.4,2.5l0,0.1c0.3,1.2,0.3,2.5,0.2,3.8
	c-0.1,1.3-0.5,2.5-1,3.7c-0.3,0.6-0.6,1.2-0.9,1.7c-0.3,0.6-0.7,1-1.1,1.5c-0.4,0.5-0.8,0.9-1.3,1.4c-0.5,0.4-0.9,0.8-1.4,1.2
	c-0.5,0.3-1,0.7-1.5,1l-1.5,0.9l-1.6,0.8c-0.5,0.3-1.1,0.5-1.6,0.7c-0.3,0.1-0.6,0.2-0.8,0.3l-0.8,0.3l-0.8,0.3l-0.4,0.1l-0.1,0
	l-0.1,0l-0.2,0.1l-3.1,0.9c-2.1,0.6-4.2,1.2-6.3,1.8c-2.1,0.6-4.2,1.2-6.3,1.7c-2.1,0.6-4.2,1.1-6.3,1.7c-2.1,0.5-4.2,1.1-6.4,1.5
	l0,0c0,0,0,0,0.1,0c0.4-0.1,0.8-0.2,1.3-0.3l1.2-0.3c0.8-0.2,1.6-0.5,2.5-0.7c1.6-0.5,3.3-1,4.9-1.5c3.3-1.1,6.5-2.1,9.8-3.2
	c6.5-2.2,13-4.4,19.4-6.7l2.7-0.9l-0.3,3c0,0,0,0,0,0.1c-0.2,0.9-0.4,1.9-0.8,2.8c-0.3,0.9-0.8,1.8-1.3,2.6
	c-0.3,0.4-0.5,0.8-0.8,1.2c-0.3,0.4-0.6,0.8-0.9,1.1c-0.7,0.7-1.4,1.4-2.1,1.9c-0.8,0.6-1.6,1.1-2.4,1.5c-0.8,0.4-1.7,0.8-2.5,1.1
	l-1.3,0.4c-0.4,0.1-0.9,0.2-1.3,0.3c-0.5,0.1-0.9,0.2-1.3,0.2l-0.6,0.1l-0.4,0.1l-0.3,0c-6.9,0.8-13.8,1.4-20.6,2l0,0c0,0,0,0,0.1,0
	c0.6,0,1.2,0,1.8-0.1c0.6,0,1.2-0.1,1.8-0.1c1.2-0.1,2.4-0.2,3.6-0.4c2.4-0.3,4.8-0.6,7.1-0.9c4.8-0.7,9.5-1.4,14.2-2.1l3.4-0.5
	l-1.6,3.3c0,0,0,0,0,0.1c-0.4,0.6-0.9,1.3-1.3,1.9c-0.5,0.6-1,1.2-1.5,1.8l-0.8,0.9l-0.9,0.8c-0.6,0.5-1.3,1-2,1.4
	c-0.7,0.4-1.5,0.8-2.2,1c-0.4,0.2-0.8,0.3-1.1,0.4l-0.6,0.2l-0.6,0.1c-0.8,0.2-1.5,0.2-2.3,0.3c-0.8,0-1.5,0.1-2.3,0.1
	c-0.8,0-1.5,0-2.3-0.1c-0.7,0-1.5-0.1-2.2-0.2l-4.4-0.4l-8.8-0.9l0,0c0,0,0,0,0.1,0c0.9,0.1,1.8,0.2,2.7,0.3
	c0.9,0.1,1.8,0.2,2.7,0.2c1.8,0.1,3.6,0.2,5.4,0.2c1.8,0.1,3.6,0.1,5.4,0.1c1.8,0,3.6,0,5.4,0l3.6-0.1l-2.4,3.2c0,0,0,0-0.1,0.1
	c-0.5,0.4-0.9,0.9-1.4,1.3c-0.5,0.4-1,0.8-1.5,1.1c-0.5,0.3-1.1,0.7-1.6,1c-0.3,0.2-0.6,0.3-0.9,0.4c-0.3,0.1-0.6,0.3-0.9,0.4
	c-0.3,0.1-0.6,0.2-0.9,0.3l-0.9,0.3c-0.6,0.2-1.2,0.3-1.8,0.4c-0.6,0.1-1.2,0.2-1.9,0.2c-0.6,0-1.2,0-1.9,0c-0.3,0-0.6,0-0.9-0.1
	c-0.3,0-0.6-0.1-0.9-0.1l-0.9-0.2c-0.3-0.1-0.6-0.1-0.9-0.2c-0.6-0.2-1.1-0.3-1.7-0.5l-1.7-0.5c-2.2-0.7-4.5-1.4-6.7-2.1l0,0
	c0,0,0,0,0.1,0c0.3,0.1,0.6,0.2,0.8,0.3c0.3,0.1,0.6,0.2,0.9,0.3c0.6,0.2,1.2,0.3,1.8,0.5c1.2,0.3,2.4,0.6,3.6,0.8
	c1.2,0.3,2.4,0.5,3.6,0.7c1.2,0.2,2.4,0.5,3.6,0.7l3.1,0.5l-2.4,2.6c0,0,0,0-0.1,0.1c-0.5,0.3-0.9,0.7-1.5,0.9
	c-0.5,0.3-1,0.5-1.5,0.7c-0.5,0.2-1.1,0.4-1.6,0.5c-0.3,0.1-0.5,0.1-0.8,0.2c-0.3,0.1-0.5,0.1-0.8,0.1l-0.8,0.1l-0.8,0
	c-0.5,0-1.1,0-1.6,0c-0.5,0-1.1-0.1-1.6-0.1c-0.5-0.1-1-0.2-1.5-0.3c-2-0.4-4-1-5.8-1.8c-1.9-0.8-3.7-1.7-5.3-2.8l0,0c0,0,0,0,0,0
	c0.7,0.5,1.4,0.9,2.2,1.2c0.8,0.3,1.6,0.6,2.4,0.8c1.6,0.4,3.2,0.7,4.9,1l-0.9-0.1c0,0,0,0,0.1,0c2.4-0.4,4.8-0.8,7.3-1.1l3.6-0.4
	c1.2-0.1,2.4-0.2,3.7-0.3c1.2-0.1,2.5-0.2,3.7-0.2c1.3,0,2.5,0,3.8,0.1c0.6,0,1.3,0.1,1.9,0.2c0.6,0.1,1.3,0.2,1.9,0.3
	c0.6,0.1,1.3,0.2,1.9,0.4c0.6,0.1,1.3,0.3,1.9,0.5l-2.1,0.8c0.7-1.1,1.7-2.1,2.9-2.9c1.1-0.8,2.4-1.3,3.8-1.5l-1,0.5
	c0.2-0.2,0.5-0.5,0.8-0.7c0.3-0.2,0.6-0.4,0.9-0.5c0.6-0.3,1.3-0.5,1.9-0.7c0.7-0.1,1.4-0.1,2-0.1c0.3,0,0.7,0.1,1,0.2
	c0.2,0.1,0.4,0.1,0.5,0.2l0.3,0.1l0.1,0.1l0.1,0l0.1,0.1l0.2,0.1l0.4,0.3c0.3,0.2,0.6,0.4,0.8,0.6c0.5,0.5,1,1,1.3,1.6
	c0.4,0.6,0.6,1.2,0.8,1.9c0.1,0.3,0.1,0.7,0.2,1c0,0.3,0,0.7,0,1l-0.3-1.1c0.6,1.1,1.1,2.2,1.3,3.5l-0.5-1c0.9,0.9,1.5,2,1.8,3.2
	c0.1,0.6,0.2,1.2,0.2,1.9c0,0.3,0,0.6-0.1,0.9c-0.1,0.3-0.1,0.6-0.3,1c-0.1,0.2-0.1,0.3-0.1,0.4l-0.1,0.2l-0.1,0.1l0,0.1l-0.1,0.1
	c-0.1,0.3-0.3,0.6-0.5,0.8c-0.3,0.5-0.8,1-1.2,1.4c-1,0.8-2.1,1.3-3.4,1.5l1.4-2.6c0.6,1.4,1.1,2.8,1.5,4.2l-0.1-0.3
	c0.2,0.5,0.5,1.1,0.7,1.6c0.2,0.5,0.3,1.1,0.5,1.6c0.3,1.1,0.4,2.2,0.5,3.3c0.2,2.2,0,4.4-0.3,6.5l-2.8-1.9c0.5-0.3,0.9-0.6,1.4-0.9
	c0.2-0.1,0.4-0.2,0.5-0.3c0.2-0.1,0.3-0.1,0.5-0.2c0.3-0.1,0.6-0.2,0.8-0.2c0.5-0.1,0.9-0.1,1.3-0.1c0.8,0,1.6,0.2,2.4,0.5
	c0.4,0.1,0.8,0.3,1.2,0.5l0.3,0.2l0.2,0.1l0.2,0.1c0.1,0.1,0.3,0.2,0.4,0.3l0.2,0.2l1.3,1.5l1.3,1.4l2.6,2.8l5.3,5.6l1.3,1.4
	l0.2,0.2l0.1,0.1l0.1,0.1l0,0c0,0,0,0,0.1,0.1c0,0,0.1,0,0.1,0.1c0.1,0,0.1,0,0.2,0.1c0.3,0.1,0.9,0.1,1.6,0.2
	c0.7,0.1,1.6,0.1,2.7,0.6c0.3,0.2,0.5,0.3,0.8,0.6c0.1,0.1,0.2,0.2,0.3,0.4c0.1,0.1,0.2,0.3,0.3,0.4c0.2,0.3,0.3,0.5,0.4,0.8
	c0,0.1,0.1,0.3,0.1,0.4c0,0.1,0,0.2,0.1,0.2l0,0.1l0.1,0.5l0,0.2l0,0.1l0,0.1l0,0.3c0,0.4,0,0.8-0.1,1.2c-0.1,0.4-0.1,0.8-0.2,1.2
	l-0.2,0.6c-0.1,0.2-0.2,0.4-0.3,0.6c-0.4,0.8-1,1.5-1.6,2.1c-1.4,1.2-3,1.7-4.6,1.8c-1.6,0.1-3.1-0.1-4.6-0.6l-0.5-0.2l-0.1,0
	l-0.1-0.1l-0.1,0c-0.1-0.1-0.2-0.1-0.3-0.2c-0.4-0.2-0.7-0.4-1-0.7c-0.6-0.4-1.1-0.9-1.6-1.4c-0.5-0.5-1-0.9-1.5-1.4l-0.7-0.7
	c-0.2-0.1-0.6-0.7-0.8-0.9l-4.9-5.8l2,0.6c-3.3,1.1-6.7,1.7-10.1,2l1.4-1c-0.4,0.7-0.8,1.4-1.2,2c-0.2,0.3-0.4,0.7-0.7,1
	c-0.1,0.2-0.3,0.4-0.4,0.5c-0.1,0.1-0.2,0.3-0.3,0.3l0,0.1l0,0c-0.1,0.1,0,0,0,0l0.1-0.1c0.1-0.1,0.1-0.2,0.2-0.3
	c0-0.1,0.1-0.2,0.1-0.3c0-0.1,0-0.1,0-0.2c0-0.1,0-0.1,0-0.2c0,0,0,0,0,0.1c0.1,0.1,0.2,0.4,0.4,0.6c0.4,0.4,0.8,0.8,1.3,1.1
	c1,0.7,2.2,1.1,3.4,1.1c1.2,0.1,2.4-0.2,3.5-0.7c0.3-0.1,0.6-0.3,0.8-0.4c0.1-0.1,0.2-0.2,0.4-0.2c0.1-0.1,0.2-0.1,0.4-0.3l0.5-0.3
	c0,0,0.7-0.5,1-0.5c0.7-0.2,1.2-0.3,1.7-0.3c1,0,1.9,0.1,2.8,0.5c0.5,0.2,0.9,0.3,1.4,0.6c0.1,0.1,0.2,0.1,0.4,0.3
	c0.2,0.1,0.3,0.2,0.4,0.4l0.2,0.2l0.3,0.3c0.4,0.5,1,1.1,1.5,1.6l1.5,1.7l3.1,3.3l5.8,6.1c0,0.1,0.6,0.1,1.4,0.1
	c0.4,0,0.9,0,1.4,0.1c0.2,0,0.9,0.2,0.9,0.3l0.1,0l0,0c0,0,0.2,0.1,0.1,0.1l0.1,0l0.2,0.1c0.2,0.1,0.3,0.2,0.4,0.3
	c0.5,0.4,0.9,1,1.2,1.5c0.3,0.5,0.4,1.1,0.5,1.6c0.1,0.5,0.1,1,0.1,1.6c0,0.1,0,0.3,0,0.4l0,0.2l0,0.1l0,0.2l0,0.2l-0.1,0.3
	c-0.2,0.9-0.6,1.8-1.2,2.6c-0.5,0.8-1.4,1.6-2.3,2.1c-0.9,0.5-1.9,0.8-2.9,0.9c-1,0.1-1.9,0.1-2.8-0.1c-0.4-0.1-0.9-0.2-1.3-0.3
	l-0.7-0.2l-0.5-0.2c-0.1,0-0.5-0.2-0.7-0.3c-0.2-0.1-0.5-0.3-0.7-0.4c-0.4-0.3-0.7-0.5-1.1-0.8c-1.3-1.1-2.4-2.2-3.5-3.3l0,0
	l-0.1-0.1l-5.3-6.3l2,0.6c-2.7,0.9-5.4,1.6-8.1,2.2c-2.7,0.6-5.5,1.2-8.2,1.6c-2.8,0.4-5.5,0.8-8.4,1c-2.8,0.2-5.7,0.3-8.6,0
	c-0.7-0.1-1.5-0.2-2.2-0.4c-0.4-0.1-0.7-0.2-1.2-0.3c-0.2-0.1-0.4-0.1-0.6-0.2l-0.5-0.2l-0.2-0.1l-0.1-0.1l-0.2-0.1l-0.5-0.3
	l-0.9-0.5l-0.9-0.5c-0.3-0.2-0.6-0.3-0.9-0.6c-1.2-0.8-2.4-1.6-3.5-2.5l-0.8-0.7l-0.4-0.3l-0.4-0.4l-1.6-1.6
	c-0.5-0.6-0.9-1.1-1.4-1.7c-0.2-0.3-0.4-0.6-0.7-0.9l-0.6-0.9c-0.8-1.3-1.5-2.6-2-4c-0.3-0.7-0.5-1.4-0.7-2.2
	c-0.1-0.7-0.3-1.5-0.4-2.2c-0.1-0.8-0.2-1.5-0.2-2.3c0-0.4,0-0.8,0-1.2c0-0.4,0.1-0.8,0.1-1.3l0,0.7c-0.1-0.4-0.2-0.7-0.4-1l2,0.7
	l-5.6,1.4l-1.4,0.3l-1.4,0.3l-2.8,0.6l-5.6,1.2l-5.6,1.1c-3.8,0.7-7.5,1.4-11.3,2c-1.9,0.3-3.8,0.6-5.7,0.9c-1,0.1-1.9,0.3-3,0.3
	l-0.4,0l-0.2,0l-0.1,0l-0.1,0l0,0l0,0l-0.8,0l-1.5-0.1l0.9-0.2c-3.6,1.6-7.3,3.2-11,4.8c-1.8,0.8-3.7,1.6-5.6,2.3
	c-1.9,0.8-3.7,1.5-5.8,2.1l-0.8,0.2c-0.3,0.1-0.5,0.1-0.7,0.2l-0.2,0l-0.2,0.1l-0.4,0.1l-0.7,0.2c-1,0.2-1.9,0.4-2.8,0.7
	c-1.9,0.5-3.8,1-5.5,1.7c-0.9,0.3-1.8,0.7-2.5,1.1l-0.3,0.1l-0.2,0.1l-0.1,0.1c0,0,0,0,0,0c0,0,0,0,0-0.1c0,0,0,0,0,0c0,0,0,0,0,0.1
	l-0.1,0.2l-0.1,0.1c0,0.1,0.3-0.5,0.1-0.2l0,0l0,0.1c-0.1,0.2-0.2,0.3-0.3,0.5c-0.2,0.3-0.4,0.6-0.6,0.8c-0.8,1-1.7,1.7-2.7,2.3
	c-0.5,0.3-1,0.6-1.6,0.8l-0.2,0.1l0,0l-0.1,0l0,0l-0.1,0c-0.2,0.1-0.4,0.1-0.6,0.2c-0.2,0-0.4,0.1-0.6,0.1l-0.6,0
	c-1.5-0.1-2.8-0.6-3.8-1.4c-0.5-0.4-1-0.8-1.4-1.2c-0.2-0.2-0.4-0.4-0.6-0.7c-0.1-0.1-0.2-0.2-0.3-0.3l-0.1-0.2c-0.1-0.1,0,0,0-0.1
	l0,0l0-0.1l-0.1-0.1c-0.2-0.3-0.4-0.6-0.5-1l-0.2-0.6c-0.1-0.2-0.1-0.4-0.1-0.6c0-0.4-0.1-0.8,0-1.1c0-0.4,0.1-0.7,0.2-1.1
	c0.4-1.4,1.1-2.4,1.8-3.3c0.7-0.9,1.6-1.6,2.4-2.3c0.4-0.3,0.8-0.7,1.3-1l0.7-0.5L32,133l0.2-0.1l0.1-0.1l0.1-0.1l0.5-0.3
	c0.2-0.1,0.3-0.1,0.4-0.2L34,132l1.4-0.6l2.8-1.1l11.2-4.1l2.8-1.1c0.9-0.4,1.9-0.7,2.6-1.1l0.7-0.3c0.1,0,0.3-0.2,0.5-0.3
	c0.4-0.2,0.8-0.5,1.2-0.7c0.8-0.5,1.6-1.1,2.4-1.6l1.7,3.3c-3.1,1.1-6.3,2.2-9.6,3.1c-1.7,0.4-3.4,0.8-5,1c-1.6,0.3-3.3,0.5-4.9,0.8
	c-1.6,0.3-3.2,0.6-4.6,1.1c-0.3,0.1-0.7,0.2-0.9,0.3c-0.1,0.1-0.2,0.1-0.3,0.1c0,0-0.1,0.1,0.1-0.1c0.2-0.3-0.1,0.2,0-0.1
	c-0.6,1-1.3,1.8-2.2,2.4c-1.8,1.2-4.1,1.7-6.3,1c-0.6-0.2-1.1-0.4-1.6-0.7c-0.2-0.2-0.5-0.3-0.7-0.5c-0.2-0.2-0.5-0.5-0.7-0.7
	l-0.4-0.5l0-0.1l-0.1-0.1l0,0l0,0l-0.1-0.2l-0.2-0.3c-0.1-0.2-0.2-0.5-0.4-0.7c-0.1-0.3-0.2-0.5-0.3-0.8c-0.3-1.1-0.3-2.5,0.1-3.6
	c0.4-1.2,1.2-2,2-2.7c0.8-0.7,1.6-1.2,2.4-1.6c0.8-0.4,1.6-0.8,2.5-1.1c1.6-0.7,3.3-1.1,4.9-1.6c1.6-0.4,3.3-0.8,4.9-1.1l2.4-0.5
	l2.4-0.5c1.6-0.3,3.2-0.6,4.7-1.1c0.4-0.1,0.7-0.2,1.1-0.3c0.2-0.1,0.4-0.1,0.6-0.2l0.3-0.1l0.2-0.1c0.7-0.3,1.4-0.7,2.1-1
	c1.4-0.8,2.8-1.6,4.3-2.4l-0.9,1.8c0-0.1,0-0.3,0-0.5l0-0.5l0-1l0-1.9l0.1-3.7l0-0.5l0-0.4l0-0.9l0-1.8l0-1.8l0-0.2l0-0.1l0,0
	c0,0,0-0.1,0,0l0,0l0,0l0,0l0-0.1l0-0.4l0-0.9l0.1,0.4c-0.2-0.6-0.4-1.2-0.7-1.8c-0.1-0.3-0.3-0.6-0.4-0.8c-0.1-0.2-0.1-0.2-0.2-0.4
	c-0.1-0.1-0.1-0.1-0.1-0.2c0,0-0.1-0.1-0.1-0.1c-0.2-0.3-0.4-0.4-0.9-0.6c-0.3-0.1-0.6-0.1-1-0.2L53,94.7c-0.2-0.1-0.3-0.1-0.6-0.2
	c-1.6-0.4-2.9-0.9-4.1-1l-1.1-0.1c-0.4-0.1-0.8-0.1-1.2-0.2c-0.8-0.1-1.5-0.2-2.3-0.4c-3-0.6-6-1.5-8.9-2.6
	c-1.4-0.5-2.8-1.1-4.2-1.6c-0.7-0.3-1.4-0.5-2-0.8l-0.5-0.2l-0.5-0.2C27.4,87.3,27,87.2,26.7,87.1L26.7,87.1z"/>
<rect x="-54.7" y="180.1" class="st1" width="325" height="54.3"/>
<text transform="matrix(1 0 0 1 -4.9359 197.6513)" class="st2"><tspan x="0" y="0" class="st3 st4 st5">flying rabbit </tspan><tspan x="32.1" y="21" class="st3 st4 st6 st7">Design + Dev</tspan></text>
<g>
	<path class="st8" d="M0,180.1h11.4v2.8H3.1v5.1h7.4v2.7H3.1v6.8H0V180.1z"/>
	<path class="st8" d="M17.3,180.1h3.1v14.7h8.3v2.8H17.3V180.1z"/>
	<path class="st8" d="M30.8,180.1h3.1v3.9c0,3.5,1.7,5,4.2,5c2.4,0,4.2-1.3,4.2-5v-3.9h3.1v3.9c0,4.8-2.2,7.2-5.8,7.7v5.9h-3.1v-5.9
		c-3.6-0.5-5.7-3-5.7-7.7V180.1z"/>
	<path class="st8" d="M51.5,180.1h3.1v17.6h-3.1V180.1z"/>
	<path class="st8" d="M61.8,180h1l10.9,11.3v-11.2h3.1v17.7H76l-11-11v10.9h-3.1V180z"/>
	<path class="st8" d="M99.6,188.4v7.5c0,0-2.6,2-6.8,2c-5.9,0-9.9-3.9-9.9-9.1c0-5.1,4.3-9.1,9.5-9.1c3.9,0,6.2,1.4,6.2,1.4
		l-1.1,2.6c0,0-2.3-1.1-4.6-1.1c-4.1,0-6.6,2.6-6.6,6.2c0,3.5,2.7,6.1,6.3,6.1c1.6,0,3-0.4,4-0.7v-3.1h-4.9v-2.8H99.6z"/>
	<path class="st8" d="M116.5,180.1h5.6c4.7,0,7,2.6,7,6.2c0,1.8-0.9,4.4-3.3,5.5c1.3,1.1,1.7,3,3.8,3h0.7v2.7c0,0-0.6,0.1-1.7,0.1
		c-4.4,0-4.1-4-6.2-5.2c-0.3,0-0.6,0-0.9,0h-1.9v5.1h-3.1V180.1z M119.6,182.9v6.9h2.3c2.9,0,3.9-1.5,3.9-3.5s-1-3.4-3.9-3.4H119.6z
		"/>
	<path class="st8" d="M147.5,193.5h-8.4v4.2H136v-10c0-5.4,2.7-7.8,7.3-7.8c4.6,0,7.4,2.5,7.4,7.8v10h-3.1V193.5z M139.1,191
		c1.5,0,7.6,0,8.4,0v-3.3c0-3.7-1.8-5-4.2-5s-4.2,1.5-4.2,5V191z"/>
	<path class="st8" d="M157.7,180.1h5.6c4.5,0,6.5,1.9,6.5,4.6c0,1.9-1.1,3.2-3.1,3.9c2.4,0.7,3.5,2.1,3.5,4c0,3.1-3,5-7,5h-5.6
		V180.1z M160.8,182.9v4.8h2.2c2.5,0,3.6-1.3,3.6-2.6c0-1.2-0.9-2.2-3.2-2.2H160.8z M160.8,189.9v4.9h2.7c2.6,0,3.5-1.1,3.5-2.4
		c0-1.2-1-2.4-4.3-2.4H160.8z"/>
	<path class="st8" d="M176.7,180.1h5.6c4.5,0,6.5,1.9,6.5,4.6c0,1.9-1.1,3.2-3.1,3.9c2.4,0.7,3.5,2.1,3.5,4c0,3.1-3,5-7,5h-5.6
		V180.1z M179.8,182.9v4.8h2.2c2.5,0,3.6-1.3,3.6-2.6c0-1.2-0.9-2.2-3.2-2.2H179.8z M179.8,189.9v4.9h2.7c2.6,0,3.5-1.1,3.5-2.4
		c0-1.2-1-2.4-4.3-2.4H179.8z"/>
	<path class="st8" d="M195.6,180.1h3.1v17.6h-3.1V180.1z"/>
	<path class="st8" d="M203.8,180.1h14.8v2.8h-5.8v14.7h-3.1v-14.7h-5.9V180.1z"/>
	<path class="st8" d="M29.8,207.4h4.2c3.5,0,6,2.4,6,5.6c0,3.2-2.6,5.6-6,5.6h-4.2V207.4z M31.8,209.2v7.6h2.3
		c2.2,0,3.9-1.6,3.9-3.8c0-2.2-1.6-3.8-3.9-3.8H31.8z"/>
	<path class="st8" d="M46.4,207.4h7.3v1.8h-5.3v3.2h4.8v1.8h-4.8v2.7h5.3v1.8h-7.3V207.4z"/>
	<path class="st8" d="M63.2,218.8c-1.3,0-2.7-0.4-3.7-1.1l0.7-1.8c0.9,0.6,2,1,3.1,1c1.3,0,1.9-0.7,1.9-1.4c0-0.8-0.4-1.2-2.4-2
		c-2.2-0.8-2.9-1.8-2.9-3.2c0-1.7,1.4-3.3,3.8-3.3c1.2,0,2.4,0.4,3.1,0.8l-0.6,1.8c-0.7-0.4-1.6-0.8-2.5-0.8c-1.2,0-1.7,0.7-1.7,1.4
		c0,0.7,0.6,1.2,2.2,1.7c2.5,1,3.2,2,3.2,3.4C67.3,217.6,65.7,218.8,63.2,218.8z"/>
	<path class="st8" d="M73.5,207.4h2v11.3h-2V207.4z"/>
	<path class="st8" d="M92.5,212.7v4.8c0,0-1.7,1.3-4.4,1.3c-3.8,0-6.3-2.5-6.3-5.8c0-3.2,2.7-5.8,6.1-5.8c2.5,0,4,0.9,4,0.9
		l-0.7,1.7c0,0-1.5-0.7-2.9-0.7c-2.6,0-4.3,1.7-4.3,4c0,2.3,1.7,3.9,4.1,3.9c1,0,2-0.2,2.6-0.4v-2h-3.1v-1.8H92.5z"/>
	<path class="st8" d="M99,207.3h0.6l7,7.3v-7.2h2v11.3H108l-7.1-7.1v7h-2V207.3z"/>
	<path class="st8" d="M127.2,216.9v-3.3h-3.3V212h3.3v-3.3h1.6v3.3h3.3v1.6h-3.3v3.3H127.2z"/>
	<path class="st8" d="M147.5,207.4h4.2c3.5,0,6,2.4,6,5.6c0,3.2-2.6,5.6-6,5.6h-4.2V207.4z M149.5,209.2v7.6h2.3
		c2.2,0,3.9-1.6,3.9-3.8c0-2.2-1.6-3.8-3.9-3.8H149.5z"/>
	<path class="st8" d="M164.1,207.4h7.3v1.8h-5.3v3.2h4.8v1.8h-4.8v2.7h5.3v1.8h-7.3V207.4z"/>
	<path class="st8" d="M182.2,215.1l3.5-7.7h2.1l-5.2,11.4h-0.7l-5.2-11.4h2.1L182.2,215.1z"/>
</g>
</svg>
